<mxfile host="app.diagrams.net" modified="2020-12-28T06:18:25.422Z" agent="5.0 (Windows NT 10.0; Win64; x64) AppleWebKit/537.36 (KHTML, like Gecko) Chrome/87.0.4280.88 Safari/537.36" etag="eOcFlni332O2Kd_HLVx2" version="14.1.2" type="github">
  <diagram id="6_kvCk24suVi-hApbcnj" name="Page-1">
    <mxGraphModel dx="1038" dy="580" grid="1" gridSize="10" guides="1" tooltips="1" connect="1" arrows="1" fold="1" page="1" pageScale="1" pageWidth="850" pageHeight="1100" math="0" shadow="0">
      <root>
        <mxCell id="0" />
        <mxCell id="1" parent="0" />
        <mxCell id="UU8Xg3dA8vqChVvvi509-2" value="" style="html=1;verticalLabelPosition=bottom;labelBackgroundColor=#ffffff;verticalAlign=top;shadow=0;dashed=0;strokeWidth=1;shape=mxgraph.ios7.misc.iphone;strokeColor=#1A1A1A;fillColor=#FFFFFF;" vertex="1" parent="1">
          <mxGeometry x="530" y="90" width="200" height="400" as="geometry" />
        </mxCell>
        <mxCell id="UU8Xg3dA8vqChVvvi509-3" value="" style="rounded=1;whiteSpace=wrap;html=1;strokeColor=#1A1A1A;fillColor=#FFFFFF;" vertex="1" parent="1">
          <mxGeometry x="550" y="160" width="160" height="60" as="geometry" />
        </mxCell>
        <mxCell id="UU8Xg3dA8vqChVvvi509-4" value="" style="outlineConnect=0;fontColor=#232F3E;gradientColor=none;fillColor=#D05C17;strokeColor=none;dashed=0;verticalLabelPosition=bottom;verticalAlign=top;align=center;html=1;fontSize=12;fontStyle=0;aspect=fixed;pointerEvents=1;shape=mxgraph.aws4.container_registry_image;" vertex="1" parent="1">
          <mxGeometry x="560" y="166" width="48" height="48" as="geometry" />
        </mxCell>
        <mxCell id="UU8Xg3dA8vqChVvvi509-5" value="Latest Movies" style="text;html=1;strokeColor=none;fillColor=none;align=center;verticalAlign=middle;whiteSpace=wrap;rounded=0;fontStyle=1;fontSize=14;" vertex="1" parent="1">
          <mxGeometry x="606" y="165" width="102" height="20" as="geometry" />
        </mxCell>
        <mxCell id="UU8Xg3dA8vqChVvvi509-6" value="Some Description goes here" style="text;html=1;strokeColor=none;fillColor=none;align=left;verticalAlign=middle;whiteSpace=wrap;rounded=0;fontSize=11;" vertex="1" parent="1">
          <mxGeometry x="611" y="188" width="89" height="20" as="geometry" />
        </mxCell>
      </root>
    </mxGraphModel>
  </diagram>
</mxfile>
